%FSLAX34Y34*%
%MOMM*%
%LNCOPPER_TOP*%
G71*
G01*
%ADD10C, 2.300*%
%ADD11C, 0.170*%
%ADD12R, 1.800X0.600*%
%ADD13R, 0.600X1.800*%
%ADD14C, 0.100*%
%ADD15R, 1.800X1.900*%
%ADD16R, 1.300X1.400*%
%ADD17C, 0.300*%
%ADD18C, 0.500*%
%ADD19R, 1.600X1.600*%
%ADD20R, 0.670X1.600*%
%ADD21C, 2.000*%
%ADD22C, 0.800*%
%ADD23R, 1.270X0.650*%
%ADD24R, 1.400X1.300*%
%ADD25C, 4.000*%
%ADD26C, 0.700*%
%ADD27R, 2.500X4.000*%
%ADD28C, 1.000*%
%ADD29C, 0.000*%
%ADD30R, 0.500X0.500*%
%ADD31R, 2.000X2.500*%
%LPD*%
X252412Y-70325D02*
G54D10*
D03*
X277812Y-70325D02*
G54D10*
D03*
X303212Y-70325D02*
G54D10*
D03*
X328612Y-70325D02*
G54D10*
D03*
X354012Y-70325D02*
G54D10*
D03*
X379412Y-70325D02*
G54D10*
D03*
X404812Y-70325D02*
G54D10*
D03*
X430212Y-70325D02*
G54D10*
D03*
X471488Y-70325D02*
G54D10*
D03*
X496888Y-70325D02*
G54D10*
D03*
X522288Y-70325D02*
G54D10*
D03*
X547688Y-70325D02*
G54D10*
D03*
X573088Y-70325D02*
G54D10*
D03*
X598488Y-70325D02*
G54D10*
D03*
X623888Y-70325D02*
G54D10*
D03*
X649288Y-70325D02*
G54D10*
D03*
X252412Y-552925D02*
G54D10*
D03*
X277812Y-552925D02*
G54D10*
D03*
X303212Y-552925D02*
G54D10*
D03*
X328612Y-552925D02*
G54D10*
D03*
X354012Y-552925D02*
G54D10*
D03*
X379412Y-552925D02*
G54D10*
D03*
X430212Y-552925D02*
G54D10*
D03*
X455612Y-552925D02*
G54D10*
D03*
X481012Y-552925D02*
G54D10*
D03*
X506412Y-552925D02*
G54D10*
D03*
X531812Y-552925D02*
G54D10*
D03*
X557212Y-552925D02*
G54D10*
D03*
G54D11*
X242950Y-525415D02*
X245950Y-527081D01*
X246950Y-528748D01*
X246950Y-532081D01*
G54D11*
X238950Y-532081D02*
X238950Y-518748D01*
X243950Y-518748D01*
X245950Y-519581D01*
X246950Y-521248D01*
X246950Y-522915D01*
X245950Y-524581D01*
X243950Y-525415D01*
X238950Y-525415D01*
G54D11*
X250650Y-529581D02*
X251650Y-531248D01*
X253650Y-532081D01*
X255650Y-532081D01*
X257650Y-531248D01*
X258650Y-529581D01*
X258650Y-527915D01*
X257650Y-526248D01*
X255650Y-525415D01*
X253650Y-525415D01*
X251650Y-524581D01*
X250650Y-522915D01*
X250650Y-521248D01*
X251650Y-519581D01*
X253650Y-518748D01*
X255650Y-518748D01*
X257650Y-519581D01*
X258650Y-521248D01*
G54D11*
X266350Y-532081D02*
X266350Y-518748D01*
G54D11*
X262350Y-518748D02*
X270350Y-518748D01*
G54D11*
X276600Y-101075D02*
X276600Y-87742D01*
X281600Y-87742D01*
X283600Y-88575D01*
X284600Y-90242D01*
X284600Y-98575D01*
X283600Y-100242D01*
X281600Y-101075D01*
X276600Y-101075D01*
G54D11*
X296300Y-101075D02*
X288300Y-101075D01*
X288300Y-100242D01*
X289300Y-98575D01*
X295300Y-93575D01*
X296300Y-91908D01*
X296300Y-90242D01*
X295300Y-88575D01*
X293300Y-87742D01*
X291300Y-87742D01*
X289300Y-88575D01*
X288300Y-90242D01*
G54D11*
X421856Y-35988D02*
X421856Y-22654D01*
X426856Y-22654D01*
X428856Y-23488D01*
X429856Y-25154D01*
X429856Y-33488D01*
X428856Y-35154D01*
X426856Y-35988D01*
X421856Y-35988D01*
G54D11*
X433556Y-22654D02*
X441556Y-22654D01*
X440556Y-24321D01*
X438556Y-26821D01*
X436556Y-30154D01*
X435556Y-32654D01*
X435556Y-35988D01*
X323658Y-245088D02*
G54D12*
D03*
X323657Y-253088D02*
G54D12*
D03*
X323657Y-261088D02*
G54D12*
D03*
X323658Y-269088D02*
G54D12*
D03*
X323658Y-277088D02*
G54D12*
D03*
X323658Y-285088D02*
G54D12*
D03*
X323657Y-293088D02*
G54D12*
D03*
X323658Y-301088D02*
G54D12*
D03*
X323658Y-309088D02*
G54D12*
D03*
X323657Y-317088D02*
G54D12*
D03*
X323658Y-325088D02*
G54D12*
D03*
X344657Y-346088D02*
G54D13*
D03*
X352657Y-346088D02*
G54D13*
D03*
X360657Y-346088D02*
G54D13*
D03*
X368657Y-346088D02*
G54D13*
D03*
X376658Y-346088D02*
G54D13*
D03*
X384658Y-346088D02*
G54D13*
D03*
X392658Y-346088D02*
G54D13*
D03*
X400657Y-346088D02*
G54D13*
D03*
X408657Y-346088D02*
G54D13*
D03*
X416657Y-346088D02*
G54D13*
D03*
X424657Y-346088D02*
G54D13*
D03*
X445658Y-325088D02*
G54D12*
D03*
X445657Y-317088D02*
G54D12*
D03*
X445658Y-309088D02*
G54D12*
D03*
X445658Y-301088D02*
G54D12*
D03*
X445657Y-293088D02*
G54D12*
D03*
X445657Y-285088D02*
G54D12*
D03*
X445657Y-277088D02*
G54D12*
D03*
X445657Y-269088D02*
G54D12*
D03*
X445658Y-261088D02*
G54D12*
D03*
X445657Y-253088D02*
G54D12*
D03*
X445657Y-245088D02*
G54D12*
D03*
X424657Y-224088D02*
G54D13*
D03*
X416657Y-224088D02*
G54D13*
D03*
X408657Y-224088D02*
G54D13*
D03*
X400658Y-224088D02*
G54D13*
D03*
X392658Y-224088D02*
G54D13*
D03*
X384657Y-224088D02*
G54D13*
D03*
X376658Y-224088D02*
G54D13*
D03*
X368657Y-224088D02*
G54D13*
D03*
X360657Y-224088D02*
G54D13*
D03*
X352658Y-224088D02*
G54D13*
D03*
X344658Y-224088D02*
G54D13*
D03*
G54D14*
X451770Y-326676D02*
X451832Y-331501D01*
X488350Y-347125D02*
G54D15*
D03*
X488350Y-219225D02*
G54D15*
D03*
X534788Y-218138D02*
G54D16*
D03*
X515788Y-218138D02*
G54D16*
D03*
G54D17*
X483988Y-343550D02*
X445888Y-341962D01*
X430012Y-324500D01*
X430012Y-283225D01*
X433188Y-278462D01*
X439538Y-276875D01*
G54D17*
X482400Y-222900D02*
X450650Y-222900D01*
X430012Y-244331D01*
X430012Y-264175D01*
X433188Y-268938D01*
X439538Y-268938D01*
X534788Y-346725D02*
G54D16*
D03*
X515788Y-346725D02*
G54D16*
D03*
G54D18*
X512562Y-346725D02*
X493512Y-346725D01*
G54D18*
X512562Y-218138D02*
X495100Y-218138D01*
G54D18*
X328612Y-77469D02*
X328612Y-200500D01*
X344488Y-216375D01*
G54D18*
X352425Y-60800D02*
X339725Y-49688D01*
X246062Y-49688D01*
X233362Y-62388D01*
X233362Y-81438D01*
X296862Y-144938D01*
X296862Y-224312D01*
X317500Y-244950D01*
G54D18*
X379412Y-60800D02*
X379412Y-59212D01*
X360362Y-40162D01*
X241300Y-40162D01*
X223838Y-56038D01*
X223838Y-83025D01*
X287338Y-149700D01*
X287338Y-229075D01*
X307975Y-251300D01*
X315912Y-252888D01*
G54D18*
X404812Y-62388D02*
X404812Y-59212D01*
X374650Y-30638D01*
X234950Y-30638D01*
X212725Y-51275D01*
X212725Y-86200D01*
X277812Y-154462D01*
X277812Y-233044D01*
X304006Y-260825D01*
X317500Y-260825D01*
G54D18*
X427038Y-60800D02*
X427038Y-60800D01*
X389731Y-21906D01*
X230188Y-21906D01*
X203994Y-49688D01*
X203994Y-90962D01*
X268288Y-158431D01*
X268288Y-238600D01*
X296069Y-267969D01*
X315912Y-268762D01*
G54D18*
X379412Y-546575D02*
X379412Y-414812D01*
X344488Y-379888D01*
X344488Y-354488D01*
G54D18*
X354012Y-546575D02*
X354012Y-405288D01*
X307975Y-359250D01*
X307975Y-332262D01*
X315912Y-324325D01*
G54D18*
X327025Y-544988D02*
X327025Y-394175D01*
X295275Y-362425D01*
X295275Y-330675D01*
X309562Y-316388D01*
X314325Y-316388D01*
G54D18*
X301625Y-544988D02*
X301625Y-384650D01*
X284162Y-367188D01*
X284162Y-327500D01*
X303212Y-308450D01*
X314325Y-308450D01*
G54D18*
X276225Y-543400D02*
X276225Y-378300D01*
X273050Y-375125D01*
X273050Y-322738D01*
X295275Y-300512D01*
X314325Y-300512D01*
X703100Y-501356D02*
G54D19*
D03*
X731100Y-501356D02*
G54D19*
D03*
X703100Y-479131D02*
G54D19*
D03*
X731100Y-479131D02*
G54D19*
D03*
X652300Y-501356D02*
G54D19*
D03*
X680300Y-501356D02*
G54D19*
D03*
X652300Y-479131D02*
G54D19*
D03*
X680300Y-479131D02*
G54D19*
D03*
G54D18*
X645988Y-485506D02*
X645988Y-495031D01*
G54D18*
X696788Y-507731D02*
X688850Y-507731D01*
X688850Y-472806D01*
X693612Y-472806D01*
X693612Y-502969D01*
X482188Y-500175D02*
G54D20*
D03*
X494888Y-500175D02*
G54D20*
D03*
X507588Y-500175D02*
G54D20*
D03*
X520288Y-500175D02*
G54D20*
D03*
X532988Y-500175D02*
G54D20*
D03*
X545688Y-500175D02*
G54D20*
D03*
X558388Y-500175D02*
G54D20*
D03*
X571088Y-500175D02*
G54D20*
D03*
X583788Y-500175D02*
G54D20*
D03*
X596488Y-500175D02*
G54D20*
D03*
X609188Y-500175D02*
G54D20*
D03*
X621888Y-500175D02*
G54D20*
D03*
X621888Y-400175D02*
G54D20*
D03*
X609188Y-400175D02*
G54D20*
D03*
X596488Y-400175D02*
G54D20*
D03*
X583788Y-400175D02*
G54D20*
D03*
X571088Y-400175D02*
G54D20*
D03*
X558388Y-400175D02*
G54D20*
D03*
X545688Y-400175D02*
G54D20*
D03*
X532988Y-400175D02*
G54D20*
D03*
X520288Y-400175D02*
G54D20*
D03*
X507588Y-400175D02*
G54D20*
D03*
X494888Y-400175D02*
G54D20*
D03*
X482188Y-400175D02*
G54D20*
D03*
X702306Y-420394D02*
G54D19*
D03*
X730306Y-420394D02*
G54D19*
D03*
X702306Y-398169D02*
G54D19*
D03*
X730306Y-398169D02*
G54D19*
D03*
X651506Y-420394D02*
G54D19*
D03*
X679506Y-420394D02*
G54D19*
D03*
X651506Y-398169D02*
G54D19*
D03*
X679506Y-398169D02*
G54D19*
D03*
G54D18*
X645194Y-404544D02*
X645194Y-414069D01*
G54D18*
X695994Y-425181D02*
X688056Y-425181D01*
X688056Y-391844D01*
X692819Y-391844D01*
X692819Y-422006D01*
G54D18*
X737788Y-496244D02*
X737788Y-483544D01*
G54D18*
X736994Y-415281D02*
X736994Y-405756D01*
X539575Y-522638D02*
G54D16*
D03*
X520575Y-522638D02*
G54D16*
D03*
G54D18*
X571100Y-395438D02*
X536175Y-395438D01*
X461962Y-402112D02*
G54D21*
D03*
X436562Y-402112D02*
G54D21*
D03*
G54D18*
X468312Y-400525D02*
X481012Y-400525D01*
G54D18*
X438150Y-408462D02*
X446088Y-416400D01*
X487362Y-416400D01*
X495300Y-408462D01*
X461962Y-497362D02*
G54D21*
D03*
X436562Y-497362D02*
G54D21*
D03*
G54D18*
X468312Y-497362D02*
X479425Y-497362D01*
G54D18*
X439738Y-492600D02*
X439738Y-491012D01*
X449262Y-481488D01*
X485775Y-481488D01*
X493712Y-489425D01*
X493712Y-494188D01*
G54D18*
X520700Y-505300D02*
X520700Y-516412D01*
G54D18*
X538162Y-518000D02*
X538162Y-510062D01*
X533400Y-504506D01*
X569912Y-504506D01*
G54D18*
X351631Y-353694D02*
X351631Y-374331D01*
X435769Y-458469D01*
X435769Y-493394D01*
G54D18*
X359569Y-353694D02*
X359569Y-370362D01*
X461169Y-471962D01*
X491331Y-471962D01*
X508000Y-485456D01*
X508000Y-493394D01*
X507206Y-494188D01*
G54D18*
X596106Y-406081D02*
X596106Y-413225D01*
X608806Y-425925D01*
X644525Y-425925D01*
X645319Y-425131D01*
G54D18*
X596900Y-493394D02*
X596900Y-485456D01*
X608012Y-474344D01*
X646112Y-474344D01*
G54D18*
X481012Y-504506D02*
X481012Y-518000D01*
X505619Y-542606D01*
X800812Y-410131D02*
G54D10*
D03*
X800812Y-435531D02*
G54D10*
D03*
X800812Y-460931D02*
G54D10*
D03*
X800812Y-486331D02*
G54D10*
D03*
G54D18*
X621506Y-394175D02*
X621506Y-392588D01*
X635000Y-379094D01*
X769938Y-379094D01*
X796131Y-405288D01*
G54D18*
X621506Y-506094D02*
X636588Y-521175D01*
X773112Y-521175D01*
X798512Y-495775D01*
X759619Y-410844D02*
G54D21*
D03*
X759619Y-447356D02*
G54D21*
D03*
X759619Y-490219D02*
G54D21*
D03*
G54D18*
X583406Y-492600D02*
X583406Y-471169D01*
X592931Y-461644D01*
X749300Y-461644D01*
X755650Y-467994D01*
X765175Y-467994D01*
X772319Y-460850D01*
X792162Y-460850D01*
G54D18*
X583406Y-406875D02*
X583406Y-425131D01*
X593725Y-435450D01*
X744538Y-435450D01*
X751681Y-428306D01*
X767556Y-428306D01*
X773906Y-434656D01*
X793750Y-434656D01*
G54D18*
X737394Y-410050D02*
X751681Y-410050D01*
G54D18*
X738981Y-490219D02*
X754062Y-490219D01*
G54D22*
X752475Y-447356D02*
X558800Y-447356D01*
X586475Y-221256D02*
G54D10*
D03*
X586475Y-246656D02*
G54D10*
D03*
X586475Y-272056D02*
G54D10*
D03*
X586475Y-297456D02*
G54D10*
D03*
X586475Y-322856D02*
G54D10*
D03*
X586475Y-348256D02*
G54D10*
D03*
G54D18*
X451644Y-325119D02*
X523875Y-325119D01*
X551656Y-297338D01*
X578644Y-297338D01*
G54D11*
X620275Y-302688D02*
X620275Y-289354D01*
X625275Y-297688D01*
X630275Y-289354D01*
X630275Y-302688D01*
G54D11*
X641975Y-291854D02*
X641975Y-300188D01*
X640975Y-301854D01*
X638975Y-302688D01*
X636975Y-302688D01*
X634975Y-301854D01*
X633975Y-300188D01*
X633975Y-291854D01*
X634975Y-290188D01*
X636975Y-289354D01*
X638975Y-289354D01*
X640975Y-290188D01*
X641975Y-291854D01*
G54D11*
X645675Y-300188D02*
X646675Y-301854D01*
X648675Y-302688D01*
X650675Y-302688D01*
X652675Y-301854D01*
X653675Y-300188D01*
X653675Y-298521D01*
X652675Y-296854D01*
X650675Y-296021D01*
X648675Y-296021D01*
X646675Y-295188D01*
X645675Y-293521D01*
X645675Y-291854D01*
X646675Y-290188D01*
X648675Y-289354D01*
X650675Y-289354D01*
X652675Y-290188D01*
X653675Y-291854D01*
G54D11*
X657375Y-302688D02*
X657375Y-289354D01*
G54D11*
X620275Y-277288D02*
X620275Y-263954D01*
X625275Y-272288D01*
X630275Y-263954D01*
X630275Y-277288D01*
G54D11*
X633975Y-277288D02*
X633975Y-263954D01*
G54D11*
X637675Y-274788D02*
X638675Y-276454D01*
X640675Y-277288D01*
X642675Y-277288D01*
X644675Y-276454D01*
X645675Y-274788D01*
X645675Y-273121D01*
X644675Y-271454D01*
X642675Y-270621D01*
X640675Y-270621D01*
X638675Y-269788D01*
X637675Y-268121D01*
X637675Y-266454D01*
X638675Y-264788D01*
X640675Y-263954D01*
X642675Y-263954D01*
X644675Y-264788D01*
X645675Y-266454D01*
G54D11*
X657375Y-266454D02*
X657375Y-274788D01*
X656375Y-276454D01*
X654375Y-277288D01*
X652375Y-277288D01*
X650375Y-276454D01*
X649375Y-274788D01*
X649375Y-266454D01*
X650375Y-264788D01*
X652375Y-263954D01*
X654375Y-263954D01*
X656375Y-264788D01*
X657375Y-266454D01*
G54D11*
X622331Y-250181D02*
X623331Y-251848D01*
X625331Y-252681D01*
X627331Y-252681D01*
X629331Y-251848D01*
X630331Y-250181D01*
X630331Y-248515D01*
X629331Y-246848D01*
X627331Y-246015D01*
X625331Y-246015D01*
X623331Y-245181D01*
X622331Y-243515D01*
X622331Y-241848D01*
X623331Y-240181D01*
X625331Y-239348D01*
X627331Y-239348D01*
X629331Y-240181D01*
X630331Y-241848D01*
G54D11*
X642031Y-250181D02*
X641031Y-251848D01*
X639031Y-252681D01*
X637031Y-252681D01*
X635031Y-251848D01*
X634031Y-250181D01*
X634031Y-241848D01*
X635031Y-240181D01*
X637031Y-239348D01*
X639031Y-239348D01*
X641031Y-240181D01*
X642031Y-241848D01*
G54D11*
X645731Y-252681D02*
X645731Y-239348D01*
G54D11*
X645731Y-248515D02*
X653731Y-239348D01*
G54D11*
X648731Y-246015D02*
X653731Y-252681D01*
G54D18*
X450850Y-317181D02*
X519906Y-317181D01*
X565150Y-271938D01*
X577056Y-271938D01*
X577850Y-271144D01*
G54D18*
X450850Y-308450D02*
X515144Y-308450D01*
X577056Y-246538D01*
X511175Y-290194D02*
G54D21*
D03*
X551656Y-322738D02*
G54D21*
D03*
G54D11*
X627125Y-320627D02*
X630125Y-322294D01*
X631125Y-323960D01*
X631125Y-327294D01*
G54D11*
X623125Y-327294D02*
X623125Y-313960D01*
X628125Y-313960D01*
X630125Y-314794D01*
X631125Y-316460D01*
X631125Y-318127D01*
X630125Y-319794D01*
X628125Y-320627D01*
X623125Y-320627D01*
G54D11*
X634825Y-324794D02*
X635825Y-326460D01*
X637825Y-327294D01*
X639825Y-327294D01*
X641825Y-326460D01*
X642825Y-324794D01*
X642825Y-323127D01*
X641825Y-321460D01*
X639825Y-320627D01*
X637825Y-320627D01*
X635825Y-319794D01*
X634825Y-318127D01*
X634825Y-316460D01*
X635825Y-314794D01*
X637825Y-313960D01*
X639825Y-313960D01*
X641825Y-314794D01*
X642825Y-316460D01*
G54D11*
X650525Y-327294D02*
X650525Y-313960D01*
G54D11*
X646525Y-313960D02*
X654525Y-313960D01*
G54D11*
X626331Y-348408D02*
X630331Y-348408D01*
X630331Y-352575D01*
X629331Y-354242D01*
X627331Y-355075D01*
X625331Y-355075D01*
X623331Y-354242D01*
X622331Y-352575D01*
X622331Y-344242D01*
X623331Y-342575D01*
X625331Y-341742D01*
X627331Y-341742D01*
X629331Y-342575D01*
X630331Y-344242D01*
G54D11*
X634031Y-355075D02*
X634031Y-341742D01*
X642031Y-355075D01*
X642031Y-341742D01*
G54D11*
X645731Y-355075D02*
X645731Y-341742D01*
X650731Y-341742D01*
X652731Y-342575D01*
X653731Y-344242D01*
X653731Y-352575D01*
X652731Y-354242D01*
X650731Y-355075D01*
X645731Y-355075D01*
G54D11*
X624950Y-224623D02*
X632950Y-224623D01*
G54D11*
X628950Y-221290D02*
X628950Y-227956D01*
G54D11*
X644650Y-217123D02*
X636650Y-217123D01*
X636650Y-222956D01*
X637650Y-222956D01*
X639650Y-222123D01*
X641650Y-222123D01*
X643650Y-222956D01*
X644650Y-224623D01*
X644650Y-227956D01*
X643650Y-229623D01*
X641650Y-230456D01*
X639650Y-230456D01*
X637650Y-229623D01*
X636650Y-227956D01*
G54D11*
X648350Y-230456D02*
X648350Y-230456D01*
G54D11*
X660050Y-219623D02*
X660050Y-227956D01*
X659050Y-229623D01*
X657050Y-230456D01*
X655050Y-230456D01*
X653050Y-229623D01*
X652050Y-227956D01*
X652050Y-219623D01*
X653050Y-217956D01*
X655050Y-217123D01*
X657050Y-217123D01*
X659050Y-217956D01*
X660050Y-219623D01*
G54D11*
X663750Y-222956D02*
X667750Y-230456D01*
X671750Y-222956D01*
G54D18*
X556419Y-322738D02*
X580231Y-322738D01*
G54D18*
X451644Y-301306D02*
X495300Y-301306D01*
X513556Y-283050D01*
G54D18*
X534194Y-348138D02*
X582612Y-348138D01*
X583406Y-348931D01*
G54D18*
X424656Y-353694D02*
X424656Y-364806D01*
X433388Y-369569D01*
X588962Y-369569D01*
X608012Y-388619D01*
X608012Y-394969D01*
X759619Y-360044D02*
G54D21*
D03*
G54D18*
X588169Y-353694D02*
X600869Y-353694D01*
X611981Y-364806D01*
X750094Y-364806D01*
X754856Y-360044D01*
X759619Y-560069D02*
G54D21*
D03*
G54D22*
X452438Y-559275D02*
X452438Y-568006D01*
X458788Y-574356D01*
X723900Y-574356D01*
X753269Y-562450D01*
G54D11*
X419956Y-573040D02*
X423956Y-573040D01*
X423956Y-577206D01*
X422956Y-578873D01*
X420956Y-579706D01*
X418956Y-579706D01*
X416956Y-578873D01*
X415956Y-577206D01*
X415956Y-568873D01*
X416956Y-567206D01*
X418956Y-566373D01*
X420956Y-566373D01*
X422956Y-567206D01*
X423956Y-568873D01*
G54D11*
X427656Y-579706D02*
X427656Y-566373D01*
X435656Y-579706D01*
X435656Y-566373D01*
G54D11*
X439356Y-579706D02*
X439356Y-566373D01*
X444356Y-566373D01*
X446356Y-567206D01*
X447356Y-568873D01*
X447356Y-577206D01*
X446356Y-578873D01*
X444356Y-579706D01*
X439356Y-579706D01*
X511119Y-130462D02*
G54D23*
D03*
X511119Y-143162D02*
G54D23*
D03*
X511119Y-155862D02*
G54D23*
D03*
X511119Y-168562D02*
G54D23*
D03*
X460319Y-168562D02*
G54D23*
D03*
X460319Y-155862D02*
G54D23*
D03*
X460319Y-143162D02*
G54D23*
D03*
X460319Y-130462D02*
G54D23*
D03*
X434006Y-128938D02*
G54D16*
D03*
X415006Y-128938D02*
G54D16*
D03*
X434006Y-162275D02*
G54D16*
D03*
X415006Y-162275D02*
G54D16*
D03*
X537225Y-166162D02*
G54D24*
D03*
X537225Y-147162D02*
G54D24*
D03*
G54D18*
X512762Y-167956D02*
X512762Y-157638D01*
X511969Y-156844D01*
G54D18*
X514350Y-167956D02*
X531812Y-167956D01*
G54D18*
X515938Y-142556D02*
X532606Y-142556D01*
G54D18*
X438944Y-156844D02*
X438944Y-156050D01*
X439738Y-155256D01*
X457994Y-155256D01*
G54D18*
X435769Y-129856D02*
X455612Y-129856D01*
G54D18*
X360362Y-217169D02*
X360362Y-98106D01*
X366712Y-91756D01*
X440531Y-91756D01*
X450850Y-81438D01*
X450850Y-55244D01*
X461169Y-44925D01*
X482600Y-44925D01*
X492919Y-55244D01*
X492919Y-60006D01*
G54D18*
X368300Y-217169D02*
X368300Y-108425D01*
X376238Y-100488D01*
X445294Y-100488D01*
X468312Y-77469D01*
G54D18*
X392906Y-217169D02*
X392906Y-134619D01*
X399256Y-128269D01*
X412750Y-128269D01*
G54D18*
X400844Y-225900D02*
X400844Y-150494D01*
X407988Y-143350D01*
X455612Y-143350D01*
G54D18*
X408781Y-217169D02*
X408781Y-166369D01*
X411162Y-163194D01*
G54D18*
X384175Y-217962D02*
X384175Y-125094D01*
X393700Y-115569D01*
X507206Y-115569D01*
X513556Y-121919D01*
X513556Y-129062D01*
X537294Y-107431D02*
G54D24*
D03*
X537294Y-126431D02*
G54D24*
D03*
G54D18*
X515144Y-129062D02*
X534194Y-129062D01*
X800781Y-232400D02*
G54D10*
D03*
X800781Y-257800D02*
G54D10*
D03*
X800781Y-308600D02*
G54D10*
D03*
X800781Y-334000D02*
G54D10*
D03*
X800781Y-359400D02*
G54D10*
D03*
G54D18*
X376238Y-216375D02*
X376238Y-115569D01*
X384175Y-107631D01*
G54D18*
X384175Y-107631D02*
X531812Y-107631D01*
X532606Y-106838D01*
G54D18*
X303212Y-80644D02*
X303212Y-131444D01*
X308769Y-137000D01*
X308769Y-208438D01*
X341312Y-240981D01*
X348456Y-240981D01*
X352425Y-237012D01*
X352425Y-229075D01*
X800781Y-207000D02*
G54D10*
D03*
X800781Y-156200D02*
G54D10*
D03*
X800781Y-181600D02*
G54D10*
D03*
X800781Y-130800D02*
G54D10*
D03*
X800781Y-80000D02*
G54D10*
D03*
X800781Y-105400D02*
G54D10*
D03*
X800781Y-54600D02*
G54D10*
D03*
X800781Y-283200D02*
G54D10*
D03*
X800781Y-384800D02*
G54D10*
D03*
X800781Y-537200D02*
G54D25*
D03*
X800781Y-588000D02*
G54D25*
D03*
G54D18*
X539750Y-146525D02*
X677862Y-146525D01*
X769938Y-54450D01*
X795338Y-54450D01*
G54D18*
X538162Y-167162D02*
X688975Y-167162D01*
X777081Y-79056D01*
X796131Y-79056D01*
X842762Y-155431D02*
G54D16*
D03*
X823762Y-155431D02*
G54D16*
D03*
X842762Y-231631D02*
G54D16*
D03*
X823762Y-231631D02*
G54D16*
D03*
X842762Y-307831D02*
G54D16*
D03*
X823762Y-307831D02*
G54D16*
D03*
X842762Y-384031D02*
G54D16*
D03*
X823762Y-384031D02*
G54D16*
D03*
G54D18*
X804862Y-154462D02*
X823912Y-154462D01*
G54D18*
X804862Y-230662D02*
X823912Y-230662D01*
G54D18*
X804862Y-306862D02*
X823912Y-306862D01*
G54D18*
X804862Y-383062D02*
X823912Y-383062D01*
G54D18*
X842962Y-154462D02*
X855662Y-154462D01*
X862012Y-160812D01*
X862012Y-376712D01*
X855662Y-383062D01*
X842962Y-383062D01*
G54D18*
X842962Y-306862D02*
X862012Y-306862D01*
G54D18*
X842962Y-230662D02*
X862012Y-230662D01*
X759619Y-106044D02*
G54D21*
D03*
X759619Y-182244D02*
G54D21*
D03*
X759619Y-258444D02*
G54D21*
D03*
X759619Y-328294D02*
G54D21*
D03*
G54D18*
X766762Y-103662D02*
X792162Y-103662D01*
G54D18*
X798512Y-97312D02*
X798512Y-84612D01*
G54D18*
X415925Y-216375D02*
X415925Y-195738D01*
X431006Y-179069D01*
X705644Y-179069D01*
X755650Y-129856D01*
X793750Y-129856D01*
G54D18*
X766762Y-182244D02*
X790575Y-182244D01*
G54D18*
X765969Y-258444D02*
X791369Y-258444D01*
X792162Y-259238D01*
G54D18*
X764381Y-330675D02*
X792956Y-330675D01*
X793750Y-331469D01*
G54D18*
X424656Y-216375D02*
X424656Y-207644D01*
X444500Y-187800D01*
X718344Y-187800D01*
X746919Y-206850D01*
X794544Y-206850D01*
G54D18*
X451644Y-252888D02*
X534194Y-252888D01*
X560388Y-237012D01*
X560388Y-210819D01*
X578644Y-203675D01*
X660400Y-203675D01*
X680244Y-223519D01*
X680244Y-330675D01*
X694531Y-344169D01*
X773906Y-344169D01*
X783431Y-352900D01*
X788988Y-358456D01*
G54D18*
X451644Y-244156D02*
X528638Y-244156D01*
X550862Y-231456D01*
X550862Y-202088D01*
X561975Y-195738D01*
X669131Y-195738D01*
X709612Y-236219D01*
X709612Y-262412D01*
X729456Y-282256D01*
X792162Y-282256D01*
X792956Y-283050D01*
X612775Y-220344D02*
G54D21*
D03*
G54D18*
X592138Y-220344D02*
X606425Y-220344D01*
X612775Y-125094D02*
G54D21*
D03*
G54D18*
X541338Y-125888D02*
X608012Y-125888D01*
G54D18*
X620712Y-125888D02*
X674688Y-125888D01*
X766762Y-33812D01*
X817562Y-33812D01*
X860425Y-76675D01*
X860425Y-143350D01*
X849312Y-154462D01*
G54D11*
X833500Y-597646D02*
X837500Y-597646D01*
X837500Y-601812D01*
X836500Y-603479D01*
X834500Y-604312D01*
X832500Y-604312D01*
X830500Y-603479D01*
X829500Y-601812D01*
X829500Y-593479D01*
X830500Y-591812D01*
X832500Y-590979D01*
X834500Y-590979D01*
X836500Y-591812D01*
X837500Y-593479D01*
G54D11*
X841200Y-604312D02*
X841200Y-590979D01*
X849200Y-604312D01*
X849200Y-590979D01*
G54D11*
X852900Y-604312D02*
X852900Y-590979D01*
X857900Y-590979D01*
X859900Y-591812D01*
X860900Y-593479D01*
X860900Y-601812D01*
X859900Y-603479D01*
X857900Y-604312D01*
X852900Y-604312D01*
G54D11*
X821181Y-519898D02*
X829181Y-519898D01*
G54D11*
X825181Y-516565D02*
X825181Y-523231D01*
G54D11*
X832881Y-517398D02*
X837881Y-512398D01*
X837881Y-525731D01*
G54D11*
X849581Y-525731D02*
X841581Y-525731D01*
X841581Y-524898D01*
X842581Y-523231D01*
X848581Y-518231D01*
X849581Y-516565D01*
X849581Y-514898D01*
X848581Y-513231D01*
X846581Y-512398D01*
X844581Y-512398D01*
X842581Y-513231D01*
X841581Y-514898D01*
G54D11*
X853281Y-518231D02*
X857281Y-525731D01*
X861281Y-518231D01*
G54D26*
X609600Y-506888D02*
X609600Y-522762D01*
X623888Y-537050D01*
X792162Y-537050D01*
X121419Y-473625D02*
G54D27*
D03*
X205556Y-472038D02*
G54D27*
D03*
X203175Y-304556D02*
G54D27*
D03*
X121419Y-305350D02*
G54D27*
D03*
G54D11*
X89519Y-288910D02*
X97519Y-288910D01*
G54D11*
X92694Y-477029D02*
X100694Y-477029D01*
G54D11*
X220694Y-483385D02*
X228694Y-483385D01*
G54D11*
X224694Y-480052D02*
X224694Y-486719D01*
G54D11*
X240394Y-475885D02*
X232394Y-475885D01*
X232394Y-481719D01*
X233394Y-481719D01*
X235394Y-480885D01*
X237394Y-480885D01*
X239394Y-481719D01*
X240394Y-483385D01*
X240394Y-486719D01*
X239394Y-488385D01*
X237394Y-489219D01*
X235394Y-489219D01*
X233394Y-488385D01*
X232394Y-486719D01*
G54D11*
X244094Y-481719D02*
X248094Y-489219D01*
X252094Y-481719D01*
G54D11*
X165544Y-270660D02*
X173544Y-270660D01*
G54D11*
X169544Y-267327D02*
X169544Y-273994D01*
G54D11*
X177244Y-268160D02*
X182244Y-263160D01*
X182244Y-276494D01*
G54D11*
X193944Y-276494D02*
X185944Y-276494D01*
X185944Y-275660D01*
X186944Y-273994D01*
X192944Y-268994D01*
X193944Y-267327D01*
X193944Y-265660D01*
X192944Y-263994D01*
X190944Y-263160D01*
X188944Y-263160D01*
X186944Y-263994D01*
X185944Y-265660D01*
G54D11*
X197644Y-268994D02*
X201644Y-276494D01*
X205644Y-268994D01*
G54D28*
X799306Y-543400D02*
X778669Y-568006D01*
X769144Y-579119D01*
X729456Y-591819D01*
X169069Y-591819D01*
X157956Y-568006D01*
X158353Y-369966D01*
X168275Y-336231D01*
X206375Y-305275D01*
G54D22*
X457200Y-506094D02*
X457200Y-506888D01*
X441325Y-522762D01*
X419100Y-522762D01*
X403225Y-538638D01*
X403225Y-564831D01*
X393700Y-574356D01*
X218281Y-574356D01*
X193675Y-557688D01*
G54D18*
X376238Y-340200D02*
X376238Y-320356D01*
X384175Y-300512D01*
X384175Y-229869D01*
X181769Y-125094D02*
G54D21*
D03*
G54D22*
X180975Y-130650D02*
X180975Y-226694D01*
X242888Y-285431D01*
X242888Y-439419D01*
X209550Y-471169D01*
G54D22*
X442119Y-522762D02*
X483394Y-522762D01*
X505619Y-544988D01*
X759619Y-606106D02*
G54D21*
D03*
G54D22*
X765969Y-604519D02*
X778669Y-604519D01*
X792162Y-591025D01*
G54D22*
X120650Y-317181D02*
X120650Y-585469D01*
X153194Y-610869D01*
X752475Y-610869D01*
X757238Y-606106D01*
X664369Y-106044D02*
G54D21*
D03*
G54D18*
X542925Y-106838D02*
X660400Y-106838D01*
G54D17*
X384175Y-338612D02*
X384175Y-331469D01*
X396875Y-317975D01*
X414338Y-317975D01*
X460375Y-364012D01*
X531812Y-364012D01*
X538162Y-357662D01*
X538162Y-349725D01*
G54D17*
X414338Y-317975D02*
X414338Y-251300D01*
X466725Y-198912D01*
X528638Y-198912D01*
X534988Y-205262D01*
X534988Y-216375D01*
G54D18*
X376238Y-232250D02*
X376238Y-248125D01*
X339725Y-284638D01*
X328612Y-284638D01*
G54D22*
X307181Y-284638D02*
X292100Y-284638D01*
X228600Y-221138D01*
X228600Y-141762D01*
X194469Y-102869D01*
X169069Y-102869D01*
X132556Y-127475D01*
X132556Y-237012D01*
X115888Y-292575D01*
X115888Y-49688D01*
X144462Y-8412D01*
X641350Y-9206D01*
X671512Y-39369D01*
X671512Y-83025D01*
X662781Y-91756D01*
X662781Y-101281D01*
X681038Y-101281D01*
X766762Y-15556D01*
X823119Y-15556D01*
X877888Y-70325D01*
X877888Y-518000D01*
X804069Y-591819D01*
G54D18*
X307181Y-284638D02*
X315119Y-284638D01*
G54D18*
X453231Y-293369D02*
X476250Y-293369D01*
X507206Y-262412D01*
X542925Y-262412D01*
X543719Y-261619D01*
X547688Y-261619D01*
X570706Y-238600D01*
X570706Y-229869D01*
X577850Y-222725D01*
X466650Y-270150D02*
G54D24*
D03*
X466650Y-289150D02*
G54D24*
D03*
G54D17*
X453231Y-283844D02*
X456406Y-283844D01*
X457200Y-283050D01*
X457200Y-280669D01*
X461962Y-275906D01*
X454744Y-520975D02*
G54D24*
D03*
X454744Y-539975D02*
G54D24*
D03*
G54D22*
X197644Y-556100D02*
X197644Y-484662D01*
G36*
X115050Y-498000D02*
X117050Y-496000D01*
X141050Y-496000D01*
X143050Y-498000D01*
X143050Y-532000D01*
X141050Y-534000D01*
X117050Y-534000D01*
X115050Y-532000D01*
X115050Y-498000D01*
G37*
G54D29*
X115050Y-498000D02*
X117050Y-496000D01*
X141050Y-496000D01*
X143050Y-498000D01*
X143050Y-532000D01*
X141050Y-534000D01*
X117050Y-534000D01*
X115050Y-532000D01*
X115050Y-498000D01*
G36*
X175050Y-498000D02*
X177050Y-496000D01*
X201050Y-496000D01*
X203050Y-498000D01*
X203050Y-532000D01*
X201050Y-534000D01*
X177050Y-534000D01*
X175050Y-532000D01*
X175050Y-498000D01*
G37*
G54D29*
X175050Y-498000D02*
X177050Y-496000D01*
X201050Y-496000D01*
X203050Y-498000D01*
X203050Y-532000D01*
X201050Y-534000D01*
X177050Y-534000D01*
X175050Y-532000D01*
X175050Y-498000D01*
X121525Y-514038D02*
G54D30*
D03*
X196525Y-513538D02*
G54D30*
D03*
G36*
X114950Y-536100D02*
X116950Y-534100D01*
X140950Y-534100D01*
X142950Y-536100D01*
X142950Y-570100D01*
X140950Y-572100D01*
X116950Y-572100D01*
X114950Y-570100D01*
X114950Y-536100D01*
G37*
G54D29*
X114950Y-536100D02*
X116950Y-534100D01*
X140950Y-534100D01*
X142950Y-536100D01*
X142950Y-570100D01*
X140950Y-572100D01*
X116950Y-572100D01*
X114950Y-570100D01*
X114950Y-536100D01*
G36*
X174950Y-536100D02*
X176950Y-534100D01*
X200950Y-534100D01*
X202950Y-536100D01*
X202950Y-570100D01*
X200950Y-572100D01*
X176950Y-572100D01*
X174950Y-570100D01*
X174950Y-536100D01*
G37*
G54D29*
X174950Y-536100D02*
X176950Y-534100D01*
X200950Y-534100D01*
X202950Y-536100D01*
X202950Y-570100D01*
X200950Y-572100D01*
X176950Y-572100D01*
X174950Y-570100D01*
X174950Y-536100D01*
X121525Y-552138D02*
G54D30*
D03*
X196525Y-551638D02*
G54D30*
D03*
G36*
X861100Y-408400D02*
X863100Y-410400D01*
X863100Y-434400D01*
X861100Y-436400D01*
X827100Y-436400D01*
X825100Y-434400D01*
X825100Y-410400D01*
X827100Y-408400D01*
X861100Y-408400D01*
G37*
G54D29*
X861100Y-408400D02*
X863100Y-410400D01*
X863100Y-434400D01*
X861100Y-436400D01*
X827100Y-436400D01*
X825100Y-434400D01*
X825100Y-410400D01*
X827100Y-408400D01*
X861100Y-408400D01*
G36*
X861100Y-468400D02*
X863100Y-470400D01*
X863100Y-494400D01*
X861100Y-496400D01*
X827100Y-496400D01*
X825100Y-494400D01*
X825100Y-470400D01*
X827100Y-468400D01*
X861100Y-468400D01*
G37*
G54D29*
X861100Y-468400D02*
X863100Y-470400D01*
X863100Y-494400D01*
X861100Y-496400D01*
X827100Y-496400D01*
X825100Y-494400D01*
X825100Y-470400D01*
X827100Y-468400D01*
X861100Y-468400D01*
X845019Y-414919D02*
G54D30*
D03*
X845519Y-489919D02*
G54D30*
D03*
G54D22*
X857250Y-482281D02*
X876300Y-482281D01*
G54D22*
X846931Y-413225D02*
X846931Y-385444D01*
G54D22*
X588962Y-573562D02*
X588962Y-549750D01*
X558006Y-518794D01*
X558006Y-394969D01*
X32431Y-590381D02*
G54D25*
D03*
X31638Y-30788D02*
G54D25*
D03*
X931750Y-30788D02*
G54D25*
D03*
X931750Y-591175D02*
G54D25*
D03*
X165719Y-220219D02*
G54D16*
D03*
X146719Y-220219D02*
G54D16*
D03*
X165719Y-189262D02*
G54D16*
D03*
X146719Y-189262D02*
G54D16*
D03*
G54D22*
X137319Y-184944D02*
X137319Y-223837D01*
X136525Y-224631D01*
G54D22*
X174625Y-183356D02*
X174625Y-225425D01*
X175419Y-226219D01*
X22944Y-137294D02*
G54D31*
D03*
X61838Y-137294D02*
G54D31*
D03*
X22944Y-208731D02*
G54D31*
D03*
X61838Y-208731D02*
G54D31*
D03*
X22944Y-276994D02*
G54D31*
D03*
X61838Y-276994D02*
G54D31*
D03*
X22944Y-348431D02*
G54D31*
D03*
X61838Y-348431D02*
G54D31*
D03*
X22944Y-413519D02*
G54D31*
D03*
X61838Y-413519D02*
G54D31*
D03*
X22944Y-484956D02*
G54D31*
D03*
X61838Y-484956D02*
G54D31*
D03*
G54D22*
X21431Y-140494D02*
X21431Y-511969D01*
X34925Y-525462D01*
X105569Y-525462D01*
X138113Y-526256D01*
G54D22*
X61913Y-415925D02*
X61913Y-480219D01*
X58738Y-483394D01*
G54D22*
X60325Y-279400D02*
X60325Y-344487D01*
X61119Y-345281D01*
G54D22*
X61119Y-138906D02*
X61119Y-204787D01*
X941287Y-485800D02*
G54D31*
D03*
X902394Y-485800D02*
G54D31*
D03*
X941287Y-414362D02*
G54D31*
D03*
X902394Y-414362D02*
G54D31*
D03*
X941287Y-346100D02*
G54D31*
D03*
X902394Y-346100D02*
G54D31*
D03*
X941287Y-274662D02*
G54D31*
D03*
X902394Y-274662D02*
G54D31*
D03*
X941287Y-209575D02*
G54D31*
D03*
X902394Y-209575D02*
G54D31*
D03*
X941287Y-138137D02*
G54D31*
D03*
X902394Y-138137D02*
G54D31*
D03*
G54D22*
X902319Y-207169D02*
X902319Y-142875D01*
X905494Y-139700D01*
G54D22*
X903906Y-343694D02*
X903906Y-278606D01*
X903112Y-277813D01*
G54D22*
X903112Y-484188D02*
X903112Y-418306D01*
G54D22*
X877094Y-93662D02*
X928688Y-93662D01*
X942181Y-107156D01*
X942181Y-513556D01*
X925513Y-530225D01*
X865188Y-530225D01*
G54D18*
X408781Y-353219D02*
X408781Y-372269D01*
X418306Y-382587D01*
X502444Y-382587D01*
X507206Y-387350D01*
X507206Y-393700D01*
G54D18*
X416719Y-353219D02*
X416719Y-368300D01*
X424656Y-376237D01*
X512763Y-376237D01*
X519906Y-383381D01*
X519906Y-394494D01*
G54D18*
X384175Y-353219D02*
X384175Y-377825D01*
X454025Y-447675D01*
X559594Y-447675D01*
X519038Y-265388D02*
G54D24*
D03*
X519038Y-284388D02*
G54D24*
D03*
M02*
